{
  "accessors": [
    {
      "bufferView": 2,
      "componentType": 5126,
      "count": 6674,
      "max": [
        6.2227106094360352,
        0.79091060161590576,
        -7.6216726303100586
      ],
      "min": [
        -0.37349891662597656,
        -1.6100168228149414,
        -14.227856636047363
      ],
      "type": "VEC3"
    },
    {
      "bufferView": 2,
      "byteOffset": 80088,
      "componentType": 5126,
      "count": 6674,
      "max": [
        0.99929356575012207,
        0.99986571073532104,
        0.9999699592590332
      ],
      "min": [
        -0.99989044666290283,
        -0.99946838617324829,
        -0.9999127984046936
      ],
      "type": "VEC3"
    },
    {
      "bufferView": 1,
      "componentType": 5126,
      "count": 6674,
      "max": [
        0.99367427825927734,
        1
      ],
      "min": [
        9.6597133961040527e-05,
        0.00020641565788537264
      ],
      "type": "VEC2"
    },
    {
      "bufferView": 0,
      "componentType": 5125,
      "count": 27417,
      "max": [
        6673
      ],
      "min": [
        0
      ],
      "type": "SCALAR"
    },
    {
      "bufferView": 2,
      "byteOffset": 160176,
      "componentType": 5126,
      "count": 14070,
      "max": [
        3.8309030532836914,
        2.9755198955535889,
        -12.316113471984863
      ],
      "min": [
        -2.6826322078704834,
        -0.31437265872955322,
        -18.735986709594727
      ],
      "type": "VEC3"
    },
    {
      "bufferView": 2,
      "byteOffset": 329016,
      "componentType": 5126,
      "count": 14070,
      "max": [
        0.99988460540771484,
        0.99964779615402222,
        0.99921000003814697
      ],
      "min": [
        -0.99960029125213623,
        -0.99900096654891968,
        -0.9999537467956543
      ],
      "type": "VEC3"
    },
    {
      "bufferView": 1,
      "byteOffset": 53392,
      "componentType": 5126,
      "count": 14070,
      "max": [
        0.99500799179077148,
        0.99925911426544189
      ],
      "min": [
        7.8399418271146715e-05,
        0.00390625
      ],
      "type": "VEC2"
    },
    {
      "bufferView": 0,
      "byteOffset": 109668,
      "componentType": 5125,
      "count": 14076,
      "max": [
        14069
      ],
      "min": [
        0
      ],
      "type": "SCALAR"
    }
  ],
  "asset": {
    "extras": {
      "author": "Mingxuan Xie (https://sketchfab.com/vrchitecture)",
      "license": "CC-BY-4.0 (http://creativecommons.org/licenses/by/4.0/)",
      "source": "https://sketchfab.com/3d-models/shut-up-5409ff8b35af4870a0b9efbb73e0b84b",
      "title": "Shut up"
    },
    "generator": "Sketchfab-8.44.0",
    "version": "2.0"
  },
  "bufferViews": [
    {
      "buffer": 0,
      "byteLength": 165972,
      "byteOffset": 0,
      "name": "floatBufferViews",
      "target": 34963
    },
    {
      "buffer": 0,
      "byteLength": 165952,
      "byteOffset": 165972,
      "byteStride": 8,
      "name": "floatBufferViews",
      "target": 34962
    },
    {
      "buffer": 0,
      "byteLength": 497856,
      "byteOffset": 331924,
      "byteStride": 12,
      "name": "floatBufferViews",
      "target": 34962
    }
  ],
  "buffers": [
    {
      "byteLength": 829780,
      "uri": "scene.bin"
    }
  ],
  "extensionsUsed": [
    "KHR_materials_unlit"
  ],
  "images": [
    {
      "uri": "textures/material0_baseColor.jpeg"
    },
    {
      "uri": "textures/material0_0_baseColor.jpeg"
    }
  ],
  "materials": [
    {
      "doubleSided": false,
      "extensions": {
        "KHR_materials_unlit": {}
      },
      "name": "material0",
      "pbrMetallicRoughness": {
        "baseColorFactor": [
          1,
          1,
          1,
          1
        ],
        "baseColorTexture": {
          "index": 0,
          "texCoord": 0
        },
        "metallicFactor": 0,
        "roughnessFactor": 1
      }
    },
    {
      "doubleSided": true,
      "emissiveFactor": [
        0,
        0,
        0
      ],
      "extensions": {
        "KHR_materials_unlit": {}
      },
      "name": "material0_0",
      "pbrMetallicRoughness": {
        "baseColorFactor": [
          1,
          1,
          1,
          1
        ],
        "baseColorTexture": {
          "index": 1,
          "texCoord": 0
        },
        "metallicFactor": 0,
        "roughnessFactor": 1
      }
    }
  ],
  "meshes": [
    {
      "name": "Model000_material0_0",
      "primitives": [
        {
          "attributes": {
            "NORMAL": 1,
            "POSITION": 0,
            "TEXCOORD_0": 2
          },
          "indices": 3,
          "material": 0,
          "mode": 4
        }
      ]
    },
    {
      "name": "Model_material0_0",
      "primitives": [
        {
          "attributes": {
            "NORMAL": 5,
            "POSITION": 4,
            "TEXCOORD_0": 6
          },
          "indices": 7,
          "material": 1,
          "mode": 4
        }
      ]
    }
  ],
  "nodes": [
    {
      "children": [
        1
      ],
      "name": "RootNode (gltf orientation matrix)",
      "rotation": [
        -0.70710678118654746,
        -0,
        -0,
        0.70710678118654757
      ]
    },
    {
      "children": [
        2
      ],
      "name": "RootNode (model correction matrix)"
    },
    {
      "children": [
        3
      ],
      "matrix": [
        1,
        0,
        0,
        0,
        0,
        0,
        1,
        0,
        0,
        -1,
        0,
        0,
        0,
        0,
        0,
        1
      ],
      "name": "1a05264f5165475099764efd7c584f2b.fbx"
    },
    {
      "children": [
        4,
        7
      ],
      "name": "RootNode"
    },
    {
      "children": [
        5
      ],
      "matrix": [
        0.14143179272484829,
        -0.019580092684507413,
        0.050660867221229575,
        0,
        0.025572597815209524,
        0.1486770796657447,
        -0.01392923951810552,
        0,
        -0.047916027987746385,
        0.021554615353499361,
        0.1420996421858465,
        0,
        -0.00011852383613586426,
        0.049764309078454971,
        -0.045009411871433258,
        1
      ],
      "name": "Model000"
    },
    {
      "children": [
        6
      ],
      "matrix": [
        1,
        0,
        -0,
        0,
        0,
        1,
        0,
        0,
        0,
        0,
        1,
        0,
        -2.841228723526001,
        0.52604341506958008,
        10.951040267944336,
        1
      ],
      "name": ""
    },
    {
      "mesh": 0,
      "name": "Model000_material0_0"
    },
    {
      "children": [
        8
      ],
      "matrix": [
        0.1123709930659388,
        -3.2157765576615792e-05,
        -5.0233748435596785e-09,
        0,
        -4.4645267875293711e-06,
        -0.015583305378658055,
        -0.11128522673873054,
        0,
        3.1846348498349122e-05,
        0.11128522218201652,
        -0.015583306018187764,
        0,
        -0.022774912416934967,
        0.10528728365898132,
        -0.090035788714885712,
        1
      ],
      "name": "Model"
    },
    {
      "children": [
        9
      ],
      "matrix": [
        0.81815685326406995,
        0.57357647400309486,
        0.040365727135926677,
        0,
        -0.25130614402948731,
        0.29355778438122943,
        0.92231721723180149,
        0,
        0.51716978394920321,
        -0.76474430739912058,
        0.38431960510826629,
        0,
        8.3015623092651367,
        -12.654521942138672,
        4.9436330795288086,
        1
      ],
      "name": ""
    },
    {
      "mesh": 1,
      "name": "Model_material0_0"
    }
  ],
  "samplers": [
    {
      "magFilter": 9729,
      "minFilter": 9987,
      "wrapS": 10497,
      "wrapT": 10497
    }
  ],
  "scene": 0,
  "scenes": [
    {
      "name": "OSG_Scene",
      "nodes": [
        0
      ]
    }
  ],
  "textures": [
    {
      "sampler": 0,
      "source": 0
    },
    {
      "sampler": 0,
      "source": 1
    }
  ]
}

